<svg xmlns="http://www.w3.org/2000/svg" viewBox="0 0 306 252" role="img" aria-label="Marriott">
  <title>Marriott</title>
  <path fill="#A11D2B" d="M248.4,232.9h57.5L209.7,3.7l-48.3,23.4l33.6,79.8L179.4,144L119.2,0L70.4,22.3l39.2,92l-0.2,0.4 c-24.2,58.1-53.8,74-56.7,75.1c-6.9,2.8-14.3,4.4-22.1,4.4c-2.4,0-4.7-0.1-7-0.4L0,244.4c7.8,4.5,16.6,7.1,25.9,7.1 c11.8,0,22.6-4.1,31.6-10.9l-0.1,0.2c0,0,22.3-11.3,46.2-73.2c0-0.1,8.8-19.8,13.5-32.4l0.5-1.4l42,99.2H217l-29.6-69.8l15.7-37.1 L248.4,232.9z"/>
</svg>
